<?xml version="1.0" encoding="iso-8859-1"?>
<!-- Generator: Adobe Illustrator 19.0.0, SVG Export Plug-In . SVG Version: 6.00 Build 0)  -->
<svg version="1.1" id="Layer_1" xmlns="http://www.w3.org/2000/svg" xmlns:xlink="http://www.w3.org/1999/xlink" x="0px" y="0px"
	 viewBox="0 0 481.882 481.882" style="enable-background:new 0 0 481.882 481.882;" xml:space="preserve">
<g>
	<path style="fill:#64798A;" d="M0,456.584c0,13.854,11.445,25.299,25.299,25.299h292.744c13.854,0,25.299-11.445,25.299-25.299
		v-52.405H0V456.584z"/>
	<path style="fill:#64798A;" d="M342.739,25.299C342.739,11.445,331.294,0,317.44,0H25.299C11.445,0,0,11.445,0,25.299v27.106
		h342.739V25.299z"/>
</g>
<rect y="52.405" style="fill:#E1E6E9;" width="342.739" height="352.376"/>
<rect x="16.866" y="52.405" style="fill:#EBF0F3;" width="309.007" height="352.376"/>
<g>
	<path style="fill:#3A556A;" d="M214.438,18.071h-86.136c-3.614,0-6.024,3.012-6.024,6.024s3.012,6.024,6.024,6.024h86.136
		c3.614,0,6.024-3.012,6.024-6.024S218.052,18.071,214.438,18.071z"/>
	<circle style="fill:#3A556A;" cx="171.671" cy="443.332" r="22.889"/>
</g>
<path style="fill:#2F4859;" d="M174.682,435.501h-6.626c-2.409,0-4.216,1.807-4.216,4.216v6.626c0,2.409,1.807,4.216,4.216,4.216
	h6.626c2.409,0,4.216-1.807,4.216-4.216v-6.626C178.899,437.308,177.092,435.501,174.682,435.501z"/>
<rect y="52.405" style="fill:#E1E6E9;" width="16.866" height="352.376"/>
<g>
	<path style="fill:#3A556A;" d="M342.739,456.584v-52.405h-16.866h-53.007v60.235c0,6.024,1.807,12.047,5.421,16.866h39.755
		C331.896,481.882,342.739,470.438,342.739,456.584z"/>
	<rect x="325.873" y="143.962" style="fill:#3A556A;" width="16.866" height="260.819"/>
</g>
<rect x="37.948" y="228.292" style="fill:#27A2DB;" width="103.002" height="152.998"/>
<rect x="37.948" y="368.64" style="fill:#2D93BA;" width="103.002" height="12.649"/>
<polygon style="fill:#D5D6DB;" points="272.866,236.725 305.393,236.725 305.393,245.158 272.866,245.158 272.866,300.574 
	305.393,300.574 305.393,309.007 272.866,309.007 272.866,332.499 305.393,332.499 305.393,340.932 272.866,340.932 
	272.866,404.781 325.873,404.781 325.873,214.438 272.866,214.438 "/>
<path style="fill:#FCD462;" d="M16.866,76.499v125.892h256V174.08c0-16.264,13.252-30.118,30.118-30.118h22.889v58.428l0,0V76.499
	H16.866z"/>
<g>
	<path style="fill:#F6C358;" d="M325.873,143.962h-22.889c-16.264,0-30.118,13.252-30.118,30.118v28.311h53.007V143.962z"/>
	<rect x="16.866" y="202.391" style="fill:#F6C358;" width="256" height="12.649"/>
</g>
<rect x="272.866" y="202.391" style="fill:#DC8744;" width="53.007" height="12.649"/>
<rect x="155.407" y="236.725" style="fill:#D5D6DB;" width="117.459" height="9.035"/>
<rect x="272.866" y="236.725" style="fill:#64798A;" width="32.527" height="9.035"/>
<g>
	<rect x="155.407" y="268.649" style="fill:#D5D6DB;" width="62.645" height="9.035"/>
	<rect x="155.407" y="300.574" style="fill:#D5D6DB;" width="117.459" height="9.035"/>
</g>
<rect x="272.866" y="300.574" style="fill:#64798A;" width="32.527" height="9.035"/>
<rect x="155.407" y="332.499" style="fill:#D5D6DB;" width="117.459" height="9.035"/>
<rect x="272.866" y="332.499" style="fill:#64798A;" width="32.527" height="9.035"/>
<rect x="155.407" y="364.424" style="fill:#D5D6DB;" width="94.569" height="9.035"/>
<g>
	<path style="fill:#64798A;" d="M286.118,465.016c0,9.035,7.831,16.866,16.866,16.866h162.033c9.035,0,16.866-7.831,16.866-16.866
		V430.08H286.118V465.016z"/>
	<path style="fill:#64798A;" d="M481.882,174.08c0-9.035-7.831-16.866-16.866-16.866H302.984c-9.035,0-16.866,7.831-16.866,16.866
		v18.071h195.765V174.08z"/>
</g>
<rect x="286.118" y="192.151" style="fill:#E1E6E9;" width="195.765" height="237.327"/>
<rect x="297.562" y="192.151" style="fill:#EBF0F3;" width="172.875" height="237.327"/>
<g>
	<path style="fill:#3A556A;" d="M413.214,169.261h-58.428c-2.409,0-4.216,1.807-4.216,4.216c0,2.409,1.807,4.216,4.216,4.216h58.428
		c2.409,0,4.216-1.807,4.216-4.216C417.431,171.068,415.624,169.261,413.214,169.261z"/>
	<circle style="fill:#3A556A;" cx="383.699" cy="455.981" r="15.661"/>
</g>
<path style="fill:#2F4859;" d="M386.108,450.56h-4.819c-1.807,0-3.012,1.205-3.012,3.012v4.819c0,1.807,1.205,3.012,3.012,3.012
	h4.819c1.807,0,3.012-1.205,3.012-3.012v-4.819C389.12,451.765,387.915,450.56,386.108,450.56z"/>
<rect x="286.118" y="192.151" style="fill:#E1E6E9;" width="11.445" height="237.327"/>
<rect x="297.562" y="203.595" style="fill:#FCD462;" width="172.875" height="96.376"/>
<rect x="297.562" y="291.539" style="fill:#F6C358;" width="172.875" height="8.433"/>
<rect x="309.007" y="319.247" style="fill:#27A2DB;" width="57.224" height="85.534"/>
<rect x="309.007" y="397.553" style="fill:#2D93BA;" width="57.224" height="7.228"/>
<g>
	<rect x="375.266" y="324.066" style="fill:#D5D6DB;" width="83.727" height="4.819"/>
	<rect x="375.266" y="341.534" style="fill:#D5D6DB;" width="34.936" height="4.819"/>
	<rect x="375.266" y="359.605" style="fill:#D5D6DB;" width="83.727" height="4.819"/>
	<rect x="375.266" y="377.675" style="fill:#D5D6DB;" width="83.727" height="4.819"/>
	<rect x="375.266" y="395.144" style="fill:#D5D6DB;" width="53.007" height="4.819"/>
</g>
<g>
</g>
<g>
</g>
<g>
</g>
<g>
</g>
<g>
</g>
<g>
</g>
<g>
</g>
<g>
</g>
<g>
</g>
<g>
</g>
<g>
</g>
<g>
</g>
<g>
</g>
<g>
</g>
<g>
</g>
</svg>
